<svg width="1400" height="850" viewBox="0 0 1400 850" xmlns="http://www.w3.org/2000/svg">
  <defs><linearGradient id="g" x1="0" x2="1"><stop stop-color="#0ea5e9"/><stop offset="1" stop-color="#8b5cf6"/></linearGradient><marker id="arrow" markerWidth="10" markerHeight="10" refX="8" refY="3" orient="auto"><path d="M0,0 L0,6 L9,3 z" fill="#334155"/></marker></defs>
  <rect width="1400" height="850" fill="#f8fafc"/>
  <text x="700" y="60" text-anchor="middle" font-family="Inter,Arial" font-size="42" font-weight="800" fill="#0f172a">Secure Digital IP - Architecture Diagram</text>
  <g font-family="Inter,Arial" font-size="22" font-weight="700">
    <rect x="70" y="150" width="250" height="120" rx="18" fill="#fff" stroke="#0ea5e9" stroke-width="3"/><text x="195" y="195" text-anchor="middle" fill="#0f172a">User Interface</text><text x="195" y="230" text-anchor="middle" font-size="17" font-weight="500" fill="#475569">Upload / input content</text>
    <rect x="430" y="130" width="270" height="160" rx="18" fill="#fff" stroke="#8b5cf6" stroke-width="3"/><text x="565" y="175" text-anchor="middle" fill="#0f172a">Flask Backend</text><text x="565" y="212" text-anchor="middle" font-size="17" font-weight="500" fill="#475569">Routes, validation, logic</text><text x="565" y="242" text-anchor="middle" font-size="17" font-weight="500" fill="#475569">Result rendering</text>
    <rect x="810" y="90" width="250" height="115" rx="18" fill="#fff" stroke="#22c55e" stroke-width="3"/><text x="935" y="137" text-anchor="middle" fill="#0f172a">Preprocessing</text><text x="935" y="170" text-anchor="middle" font-size="17" font-weight="500" fill="#475569">Clean text, normalize</text>
    <rect x="810" y="255" width="250" height="115" rx="18" fill="#fff" stroke="#f97316" stroke-width="3"/><text x="935" y="302" text-anchor="middle" fill="#0f172a">Feature Engine</text><text x="935" y="335" text-anchor="middle" font-size="17" font-weight="500" fill="#475569">TF-IDF vectors</text>
    <rect x="1120" y="90" width="230" height="115" rx="18" fill="#fff" stroke="#64748b" stroke-width="3"/><text x="1235" y="137" text-anchor="middle" fill="#0f172a">Hashing</text><text x="1235" y="170" text-anchor="middle" font-size="17" font-weight="500" fill="#475569">SHA-256 fingerprint</text>
    <rect x="1120" y="255" width="230" height="115" rx="18" fill="#fff" stroke="#ef4444" stroke-width="3"/><text x="1235" y="302" text-anchor="middle" fill="#0f172a">Similarity Check</text><text x="1235" y="335" text-anchor="middle" font-size="17" font-weight="500" fill="#475569">Cosine similarity</text>
    <rect x="430" y="500" width="300" height="140" rx="18" fill="#fff" stroke="#0ea5e9" stroke-width="3"/><text x="580" y="550" text-anchor="middle" fill="#0f172a">Database / Records</text><text x="580" y="587" text-anchor="middle" font-size="17" font-weight="500" fill="#475569">Content metadata</text><text x="580" y="617" text-anchor="middle" font-size="17" font-weight="500" fill="#475569">Fingerprint + timestamp</text>
    <rect x="850" y="500" width="300" height="140" rx="18" fill="#fff" stroke="#8b5cf6" stroke-width="3"/><text x="1000" y="550" text-anchor="middle" fill="#0f172a">Output Layer</text><text x="1000" y="587" text-anchor="middle" font-size="17" font-weight="500" fill="#475569">Match score, verdict</text><text x="1000" y="617" text-anchor="middle" font-size="17" font-weight="500" fill="#475569">Ownership support report</text>
  </g>
  <g stroke="#334155" stroke-width="3" marker-end="url(#arrow)" fill="none">
    <path d="M320 210 H430"/><path d="M700 210 C750 210 760 150 810 150"/><path d="M700 230 C755 230 760 315 810 315"/><path d="M1060 148 H1120"/><path d="M1060 313 H1120"/><path d="M1235 205 V255"/><path d="M565 290 V500"/><path d="M1120 315 C1030 420 1000 455 1000 500"/><path d="M730 570 H850"/><path d="M1000 640 C1000 720 195 720 195 270"/>
  </g>
  <rect x="70" y="745" width="1280" height="55" rx="18" fill="url(#g)" opacity="0.12"/><text x="700" y="781" text-anchor="middle" font-family="Inter,Arial" font-size="22" font-weight="700" fill="#0f172a">Goal: verify originality, detect similarity and preserve content identity using explainable techniques.</text>
</svg>
